# xmcd
#
# Track frame offsets:
#	183
#	14370
#	26333
#	36953
#	49410
#	65620
#	79438
#	89650
#	103038
#	112720
#	126658
#	138858
#	149383
#	160170
#	175268
#	188058
#	198368
#	211660
#	226335
#	238558
#	253865
#	272908
#
# Disc length: 3780 seconds
#
# Revision: 3
# Processed by: cddbd v1.5.2PL0 Copyright (c) Steve Scherf et al.
# Submitted via: audiograbber 1.83.01
#
DISCID=3d0ec216
DTITLE=Various Artist - Country Gold - 90 Great Hits - Vol 2
DYEAR=1991
DGENRE=Country
TTITLE0=Glen Campbell - Rhinestone Cowboy
TTITLE1=Tom T Hall - I Like Beer
TTITLE2=Barbara Mandrell - The Wayward Wind
TTITLE3=Freddy Fender - Almost Persuaded
TTITLE4=Billy Joe Royal - Lucille
TTITLE5=Barbara Fairchild - Teddy Bear Song
TTITLE6=Leroy Van Dyke - From A Jack To A King
TTITLE7=Jeanne Pruett - Satin Sheets
TTITLE8=Johnny Lee - Red Sails In The Sunset
TTITLE9=Patti Page - Honey Come back
TTITLE10=Ferlin Husky - Wings Of A Dove
TTITLE11=Charlie Rich - Who Will The Next Fool Be
TTITLE12=Stonewall Jackson - Waterloo
TTITLE13=Clarence Carter - Patches
TTITLE14=Bobby Bare - What Am I Gonna Do
TTITLE15=Ferlin Husky - Gone
TTITLE16=Tommy Overstreet - Gwen (Congratulations)
TTITLE17=Sandy Posey - She's Got You
TTITLE18=Johnny Paycheck - Song And Dance Man
TTITLE19=Mickey Gilley - Me And Bobby McGhee
TTITLE20=Leroy Van Dyke - Old Dogs, Children And Watermelon Wine
TTITLE21=Del Wood - Snowbird
EXTD=freedb: 3d0ec216, cdplayer.ini: 280661E, Track frame offsets: 183 14370 26
EXTD=333 36953 49410 65620 79438 89650 103038 112720 126658 138858 149383 16017
EXTD=0 175268 188058 198368 211660 226335 238558 253865 272908, Disc length: 37
EXTD=80 seconds.
EXTT0=
EXTT1=
EXTT2=
EXTT3=
EXTT4=
EXTT5=
EXTT6=
EXTT7=
EXTT8=
EXTT9=
EXTT10=
EXTT11=
EXTT12=
EXTT13=
EXTT14=
EXTT15=
EXTT16=
EXTT17=
EXTT18=
EXTT19=
EXTT20=
EXTT21=
PLAYORDER=
